<?xml version="1.0" encoding="UTF-8"?>
<svg enable-background="new 0 0 800 600" version="1.1" viewBox="0 0 800 600" xmlns="http://www.w3.org/2000/svg">
 <radialGradient id="a" cx="562" cy="49" r="353.55" gradientTransform="matrix(1 0 0 -1 -162 349)" gradientUnits="userSpaceOnUse">
  <stop stop-color="#fff" offset="0"/>
  <stop stop-color="#FFFDE3" offset="1"/>
 </radialGradient>
 <rect width="800" height="600" fill="url(#a)"/>
 <polygon points="287.48 205.75 80.23 205.75 89.395 225.67 80.23 245.58 287.48 245.58 278.31 225.67" fill="#414042"/>
 <polygon points="287.48 25.485 80.23 79.884 89.395 97.396 80.23 119.72 287.48 65.32 278.31 47.808" fill="#414042"/>
 <path d="m287.48 135.96c-69.083-39.835-138.17 39.835-207.25 0 3.055 8.401 6.11 16.567 9.165 24.521-3.055 5.325-6.11 10.436-9.165 15.314 69.083 39.834 138.17-39.835 207.25 0-3.055-8.401-6.109-16.569-9.165-24.522 3.055-5.324 6.11-10.435 9.165-15.313z" fill="#414042"/>
 <polygon points="326.55 285.31 262.66 285.31 262.66 325.15 326.55 325.15 317.39 305.23" fill="#58595B"/>
 <polygon points="262.66 325.15 262.66 308.77 287.48 308.77"/>
 <polygon points="41.156 285.31 105.05 285.31 105.05 325.15 41.156 325.15 50.321 305.23" fill="#58595B"/>
 <polygon points="105.05 325.15 105.05 308.77 80.229 308.77"/>
 <rect x="80.229" y="268.94" width="207.25" height="39.833" fill="#414042"/>
 <path d="m340.05 531.19c-22.602-8.137-45.68-14.452-69.02-18.944-2.511 13.038-5.021 26.076-7.532 39.116 21.327 4.104 42.409 9.875 63.058 17.309-0.714-7.312-1.576-14.642-2.587-21.982 5.229-5.251 10.59-10.419 16.081-15.499z" fill="#58595B"/>
 <path d="m263.5 551.36c1.032-5.359 2.064-10.722 3.096-16.081 8.606 1.656 17.172 3.572 25.692 5.752-9.872 3.112-19.473 6.564-28.788 10.329z"/>
 <path d="m27.663 531.19c22.601-8.137 45.678-14.452 69.02-18.944 2.51 13.038 5.021 26.076 7.531 39.116-21.325 4.104-42.409 9.875-63.057 17.309 0.713-7.312 1.575-14.642 2.586-21.982-5.229-5.251-10.59-10.419-16.08-15.499z" fill="#58595B"/>
 <path d="m104.21 551.36c-1.032-5.359-2.064-10.722-3.096-16.081-8.605 1.656-17.173 3.572-25.691 5.752 9.871 3.112 19.472 6.564 28.787 10.329z"/>
 <path d="m302.15 502.44c-77.607-19.849-158.99-19.849-236.59 0 3.29 12.863 6.58 25.729 9.869 38.592 71.132-18.191 145.72-18.191 216.86 0 3.29-12.863 6.579-25.727 9.869-38.592z" fill="#414042"/>
 <path d="m327.9 357.12c-29.915 0 16.021 0-55.684-2e-3 -1.37-0.079-7.628 0.536-9.537-3.667v36.154c0 4.283 8.167 3.586 9.537 3.668h55.684l-9.164-18.078 9.164-18.075z" fill="#58595B"/>
 <path d="m277.94 378.77h-15.261v10.929c1.909-4.203 8.167-3.586 9.537-3.666l-2.951-4e-3h8.675c1.361-0.079 9.444 0.606 9.528-3.604-1.915-4.188-8.161-3.574-9.528-3.655z"/>
 <path d="m39.806 357.12c29.916 0-16.021 0 55.684-2e-3 1.369-0.079 7.627 0.536 9.536-3.667v36.154c0 4.283-8.167 3.586-9.536 3.668h-55.684l9.165-18.078-9.165-18.075z" fill="#58595B"/>
 <path d="m277.94 342.62h-188.18c-1.369 0.077-9.536-0.618-9.536 3.665v36.154c1.909-4.203 8.167-3.586 9.536-3.666h188.18c1.368 0.08 7.627-0.537 9.535 3.666v-36.154c1e-3 -4.283-8.166-3.588-9.535-3.665z" fill="#414042"/>
 <path d="m89.766 378.77h15.26v10.929c-1.909-4.203-8.167-3.586-9.536-3.666l2.951-4e-3h-8.675c-1.362-0.079-9.445 0.606-9.528-3.604 1.916-4.188 8.161-3.574 9.528-3.655z"/>
 <path d="m340.68 456.82c-15.737-6.032-11.624-3.933-12.864-4.624-1.307-0.393-7.965-3.576-46.759-13.241-1.475-0.432-8.383-1.275-9.661-5.797-2.359 11.818-4.717 23.637-7.076 35.456-0.823 4.178 7.468 5.201 8.817 5.616 18.521 4.159 36.822 9.629 54.764 16.407-0.822-6.752-1.786-13.519-2.893-20.295 5.102-4.591 10.327-9.1 15.672-13.522z" fill="#58595B"/>
 <path d="m282.22 461.46c-5.242-1.258-10.505-2.412-15.781-3.465-0.712 3.571-1.426 7.146-2.138 10.718 2.754-3.755 9.024-1.787 10.42-1.539-0.998-0.226-1.997-0.447-2.998-0.665 2.941 0.639 5.877 1.308 8.804 2.009 1.41 0.228 9.388 2.969 10.555-1.053-0.872-4.582-7.477-5.608-8.862-6.005z"/>
 <path d="m27.026 456.82c15.738-6.032 11.625-3.933 12.865-4.624 1.306-0.393 7.965-3.576 46.758-13.241 1.475-0.432 8.384-1.275 9.663-5.797 2.358 11.818 4.717 23.637 7.075 35.456 0.824 4.178-7.468 5.201-8.817 5.616-18.521 4.159-36.823 9.629-54.765 16.407 0.823-6.752 1.787-13.519 2.892-20.295-5.101-4.591-10.326-9.1-15.671-13.522z" fill="#58595B"/>
 <path d="m290.65 426.3c-70.193-16.825-143.4-16.825-213.59 0-1.515 0.412-10.822 2.066-9.708 6.231 3.089 11.648 6.179 23.298 9.268 34.947 0.861-4.597 7.48-5.621 8.867-6.021 64.654-15.497 132.08-15.497 196.74 0 1.388 0.398 8.008 1.424 8.868 6.021 3.088-11.649 6.178-23.299 9.267-34.947 1.114-4.165-8.194-5.819-9.708-6.231z" fill="#414042"/>
 <path d="m85.487 461.46c5.243-1.258 10.504-2.412 15.781-3.465 0.713 3.571 1.426 7.146 2.138 10.718-2.753-3.755-9.023-1.787-10.42-1.539 0.999-0.226 1.998-0.447 2.998-0.665-2.94 0.639-5.875 1.308-8.804 2.009-1.409 0.228-9.386 2.969-10.555-1.053 0.872-4.582 7.476-5.608 8.862-6.005z"/>
 <polygon points="425.58 75.875 489.47 75.875 489.47 36.04 425.58 36.04 434.75 55.957" fill="#58595B"/>
 <polygon points="489.47 36.04 489.47 65.838 464.66 52.415"/>
 <polygon points="710.93 68.816 647.04 68.816 647.04 108.65 710.93 108.65 701.77 88.733" fill="#58595B"/>
 <polygon points="647.04 108.65 647.04 78.853 671.86 92.275"/>
 <path d="m671.88 92.262c-69.084-39.835-138.17 39.835-207.25 0v-39.835c69.083 39.835 138.17-39.834 207.25 0v39.835z" fill="#414042"/>
 <rect x="370.48" y="494.45" width="133.23" height="31.208" fill="#58595B"/>
 <polygon points="383.03 574.52 491.16 574.52 478.24 558.53 491.16 543.31 383.03 543.31" fill="#58595B"/>
 <polygon points="370.48 525.66 515.12 476.8 515.12 461 515.12 445.59 370.48 494.45" fill="#414042"/>
 <polygon points="383.03 574.52 503.71 525.66 503.71 494.45 383.03 543.31" fill="#414042"/>
 <path d="m376.81 156.47c29.914 0-16.021 0 55.685-2e-3 1.37-0.078 7.628 0.537 9.536-3.666v36.154c0 4.285-8.166 3.587-9.536 3.667h-55.685l9.165-18.078-9.165-18.075z" fill="#6D6E71"/>
 <path d="m426.77 178.12h15.261v10.929c-1.908-4.204-8.166-3.587-9.536-3.667l2.951-4e-3h-8.676c-1.36-0.08-9.443 0.605-9.527-3.604 1.914-4.187 8.16-3.574 9.527-3.654z"/>
 <path d="m420.9 159.96c-0.241-5.772-3.666-14.333-3.666-14.333 0-3.038 4.101-3.568 6.978-3.65v-0.025c29.914 0-16.021 0 55.684-2e-3 1.369-0.078 7.628 0.537 9.537-3.666v36.154c0 4.285-8.168 3.587-9.537 3.667h-29.887v0.01h-23.239c-1.367 0.08-7.627-0.537-9.534 3.667-3e-3 0 3.907-16.05 3.664-21.822z" fill="#58595B"/>
 <path d="m474.17 163.6h15.262v10.929c-1.909-4.205-8.168-3.587-9.537-3.667l2.95-4e-3h-8.675c-1.36-0.08-9.443 0.606-9.527-3.604 1.916-4.187 8.161-3.574 9.527-3.654z"/>
 <path d="m759.7 156.47c-29.913 0 16.021 0-55.684-2e-3 -1.369-0.078-7.629 0.537-9.535-3.666v36.154c0 4.285 8.166 3.587 9.535 3.667h55.684l-9.164-18.078 9.164-18.075z" fill="#6D6E71"/>
 <path d="m709.74 178.12h-15.26v10.929c1.906-4.204 8.166-3.587 9.535-3.667l-2.95-4e-3h8.675c1.361-0.08 9.443 0.605 9.528-3.604-1.916-4.187-8.162-3.574-9.528-3.654z"/>
 <path d="m715.62 159.96c0.242-5.772 3.667-14.333 3.667-14.333 0-3.038-4.102-3.568-6.979-3.65v-0.025c-29.914 0 16.021 0-55.684-2e-3 -1.37-0.078-7.628 0.537-9.537-3.666v36.154c0 4.285 8.167 3.587 9.537 3.667h29.887v0.01h23.239c1.368 0.08 7.627-0.537 9.535 3.667 2e-3 0-3.907-16.05-3.665-21.822z" fill="#58595B"/>
 <path d="m662.34 163.6h-15.261v10.929c1.909-4.205 8.167-3.587 9.537-3.667l-2.95-4e-3h8.674c1.361-0.08 9.444 0.606 9.528-3.604-1.916-4.187-8.161-3.574-9.528-3.654z"/>
 <path d="m671.88 131.12c0-4.283-8.168-3.587-9.536-3.666h-188.18c-1.37 0.079-9.537-0.617-9.537 3.666 0 0 3.425 8.561 3.668 14.333 0.241 5.773-3.668 21.823-3.668 21.823 1.909-4.203 8.167-3.587 9.537-3.667h188.18c1.368 0.08 7.627-0.536 9.536 3.667 0 0-3.91-16.049-3.668-21.823 0.243-5.773 3.668-14.333 3.668-14.333z" fill="#1A1A1A"/>
 <path d="m376.81 339.71h55.685c1.37-0.08 7.628 0.535 9.536-3.668v36.153c0 4.285-8.166 3.589-9.536 3.668h-55.685l9.165-18.077-9.165-18.076z" fill="#6D6E71"/>
 <path d="m426.77 361.36h15.261v10.929c-1.908-4.204-8.166-3.587-9.536-3.667l2.951-4e-3h-8.676c-1.36-0.078-9.443 0.605-9.527-3.604 1.914-4.187 8.16-3.574 9.527-3.654z"/>
 <path d="m420.9 343.2c-0.241-5.773-3.666-14.335-3.666-14.335 0-3.036 4.101-3.567 6.978-3.649v-0.025h55.684c1.369-0.08 7.628 0.535 9.537-3.666v36.154c0 4.284-8.168 3.586-9.537 3.666h-29.887v0.01h-23.239c-1.367 0.08-7.627-0.537-9.534 3.668-3e-3 -1e-3 3.907-16.051 3.664-21.823z" fill="#58595B"/>
 <path d="m759.7 339.71h-55.684c-1.369-0.08-7.629 0.535-9.535-3.668v36.153c0 4.285 8.166 3.589 9.535 3.668h55.684l-9.164-18.077 9.164-18.076z" fill="#6D6E71"/>
 <path d="m709.74 361.36h-15.26v10.929c1.906-4.204 8.166-3.587 9.535-3.667l-2.95-4e-3h8.675c1.361-0.078 9.443 0.605 9.528-3.604-1.916-4.187-8.162-3.574-9.528-3.654z"/>
 <path d="m715.62 343.2c0.242-5.773 3.667-14.335 3.667-14.335 0-3.036-4.102-3.567-6.979-3.649v-0.025h-55.684c-1.37-0.08-7.628 0.535-9.537-3.666v36.154c0 4.284 8.167 3.586 9.537 3.666h29.887v0.01h23.239c1.368 0.08 7.627-0.537 9.535 3.668 2e-3 -1e-3 -3.907-16.051-3.665-21.823z" fill="#58595B"/>
 <path d="m647.08 336.76v21.012c1.909-4.205 8.167-3.588 9.537-3.668l-2.95-4e-3h8.674c1.361-0.08 9.444 0.605 9.528-3.604v-13.934l-24.789 0.198z"/>
 <path d="m489.43 336.76v21.012c-1.909-4.205-8.168-3.588-9.537-3.668l2.95-4e-3h-8.675c-1.36-0.08-9.443 0.605-9.527-3.604v-13.934l24.789 0.198z"/>
 <path d="m684.13 316.5c1.474-4.063-7.759-6.519-9.25-7.038-69.3-22.468-143.94-22.468-213.24 0-1.493 0.52-10.727 2.975-9.252 7.038 0.023-0.017 6.564 6.751 8.669 12.139 2.068 5.386 3.518 21.894 3.577 21.88 0.422-4.646 6.829-6.176 8.154-6.664 62.054-20.119 128.89-20.119 190.94 0 1.324 0.488 7.731 2.019 8.153 6.664 0.061 0.014 1.508-16.494 3.576-21.88 2.107-5.388 8.649-12.155 8.672-12.139z" fill="#1A1A1A"/>
 <path d="m364.56 271.24c31.143-9.89-17.011 3.843 58.149-17.675 1.432-0.451 8.17-1.442 9.258-5.997 2.716 11.743 5.432 23.484 8.146 35.228 0.954 4.156-7.312 5.412-8.652 5.85-18.417 4.595-36.66 10.131-54.655 16.61 0.922-6.736 1.942-13.479 3.066-20.231-5.017-4.656-10.12-9.252-15.312-13.785z" fill="#6D6E71"/>
 <path d="m422.14 276.06c5.167-1.345 10.349-2.62 15.541-3.82 0.819 3.549 1.642 7.1 2.461 10.648-2.859-3.667-9.037-1.542-10.426-1.267 0.988-0.247 1.979-0.491 2.967-0.734-2.907 0.709-5.812 1.441-8.714 2.198-1.393 0.258-9.288 3.112-10.509-0.9 0.8-4.584 7.315-5.7 8.68-6.125z"/>
 <path d="m411.41 260.12c-1.747-5.513-7.667-12.76-7.681-12.752-0.824-2.928 3.446-4.663 6.529-5.562-3e-3 -7e-3 -5e-3 -0.015-6e-3 -0.022 32.461-7.31-17.628 2.427 60.559-12.859 1.493-0.33 8.428-0.765 9.941-5.213 1.702 11.931 3.405 23.862 5.106 35.793 0.596 4.226-7.927 4.793-9.327 5.121-10.274 1.646-20.516 3.57-30.711 5.773 1e-3 4e-3 2e-3 8e-3 3e-3 0.01-7.929 1.714-15.829 3.595-23.696 5.645-1.367 0.425-7.896 1.543-8.683 6.141-0.033 3e-3 -0.305-16.567-2.034-22.075z" fill="#58595B"/>
 <path d="m468.19 251.31c5.372-0.917 10.75-1.76 16.139-2.528 0.516 3.606 1.029 7.212 1.544 10.818-2.579-3.891-9.051-2.282-10.486-2.119 1.026-0.167 2.056-0.329 3.082-0.489-3.021 0.466-6.04 0.959-9.056 1.473-1.438 0.144-9.72 2.344-10.594-1.758 1.229-4.507 7.947-5.086 9.371-5.397z"/>
 <path d="m771.95 271.24c-31.145-9.89 17.01 3.843-58.151-17.675-1.431-0.451-8.169-1.442-9.258-5.997-2.715 11.743-5.431 23.484-8.145 35.228-0.955 4.156 7.312 5.412 8.65 5.85 18.417 4.595 36.66 10.131 54.655 16.61-0.921-6.736-1.942-13.479-3.065-20.231 5.018-4.656 10.122-9.252 15.314-13.785z" fill="#6D6E71"/>
 <path d="m714.38 276.06c-5.167-1.345-10.348-2.62-15.541-3.82-0.819 3.549-1.641 7.1-2.462 10.648 2.861-3.667 9.037-1.542 10.427-1.267-0.987-0.247-1.979-0.491-2.967-0.734 2.908 0.709 5.812 1.441 8.713 2.198 1.394 0.258 9.289 3.112 10.51-0.9-0.8-4.583-7.315-5.698-8.68-6.125z"/>
 <path d="m725.1 260.12c1.747-5.513 7.669-12.76 7.683-12.752 0.821-2.928-3.447-4.663-6.531-5.562 4e-3 -7e-3 5e-3 -0.015 6e-3 -0.022-32.459-7.31 17.629 2.427-60.558-12.859-1.493-0.33-8.426-0.765-9.941-5.213-1.702 11.931-3.405 23.862-5.105 35.793-0.597 4.226 7.926 4.793 9.326 5.121 10.274 1.646 20.516 3.57 30.711 5.773 0 4e-3 -1e-3 8e-3 -2e-3 0.01 7.928 1.714 15.827 3.595 23.695 5.645 1.366 0.425 7.896 1.543 8.684 6.141 0.031 3e-3 0.303-16.567 2.032-22.075z" fill="#58595B"/>
 <path d="m668.32 251.31c-5.372-0.917-10.751-1.76-16.141-2.528-0.514 3.606-1.028 7.212-1.543 10.818 2.579-3.891 9.051-2.282 10.486-2.119-1.027-0.167-2.055-0.329-3.082-0.489 3.021 0.466 6.04 0.959 9.056 1.473 1.438 0.144 9.719 2.344 10.594-1.758-1.228-4.507-7.945-5.086-9.37-5.397z"/>
 <path d="m684.39 221.19c0.807-4.228-8.468-5.202-9.985-5.518-70.252-12.003-142.05-12.003-212.3-2e-3 -1.521 0.317-10.795 1.292-9.989 5.52 0.013-4e-3 5.361 7.709 6.638 13.348 1.256 5.636 0.028 22.184 0.062 22.182 1.217-4.52 7.947-5.097 9.378-5.41 66.223-11.313 133.9-11.312 200.12 0 1.426 0.313 8.156 0.891 9.374 5.41 0.034 2e-3 -1.192-16.546 0.062-22.182 1.274-5.639 6.624-13.351 6.637-13.348z" fill="#1A1A1A"/>
 <path d="m772.97 428.89c-26.147-9.844-46.056-8.405-76.837-3.911-1.94 0.308-10.104 3.375-14.117 0.461 4.08 11.34 8.163 22.678 12.246 34.018 1.47 3.914 9.177 0.753 10.604 0.607 18.419-4.584 37.863-3.638 55.857 2.842-0.92-6.734-2.437-13.522-4.558-20.273 5.077-4.933 10.689-9.542 16.805-13.744z" fill="#6D6E71"/>
 <path d="m705.84 435.85c-5.866 1.085-13.465 0.565-19.141 2.606 1.233 3.429 6.366 17.667 7.6 21.096 0.479-4.726 7.398-6.148 8.823-6.507-1.051 0.26-2.098 0.537-3.141 0.831 3.065-0.867 6.161-1.588 9.277-2.165 1.461-0.479 10.795-0.94 10.03-4.975-2.23-11.765-11.902-11.175-13.448-10.886z"/>
 <path d="m715.62 424.86c0.242-5.773 3.667-14.335 3.667-14.335 0-3.036-4.102-3.567-6.979-3.647v-0.027c-29.914 0 16.021 0-55.684-2e-3 -1.37-0.077-7.628 0.537-9.537-3.665v36.154c0 4.284 8.167 3.587 9.537 3.667h29.887v0.01h23.239c1.368 0.08 7.627-0.536 9.535 3.667 2e-3 0-3.907-16.05-3.665-21.822z" fill="#58595B"/>
 <path d="m647.08 418.43v21.011c1.909-4.204 8.167-3.588 9.537-3.667l-2.95-5e-3h8.674c1.361-0.077 9.444 0.605 9.528-3.604v-13.933l-24.789 0.198z"/>
 <path d="m363.54 428.89c26.147-9.844 46.056-8.405 76.836-3.911 1.941 0.308 10.104 3.375 14.119 0.461-4.081 11.34-8.164 22.678-12.247 34.018-1.469 3.914-9.177 0.753-10.604 0.607-18.419-4.584-37.862-3.638-55.857 2.842 0.92-6.734 2.437-13.522 4.557-20.273-5.076-4.933-10.689-9.542-16.804-13.744z" fill="#6D6E71"/>
 <path d="m430.67 435.85c5.866 1.085 13.465 0.565 19.14 2.606-1.232 3.429-6.364 17.667-7.599 21.096-0.478-4.726-7.398-6.148-8.823-6.507 1.051 0.26 2.098 0.537 3.142 0.831-3.066-0.867-6.162-1.588-9.278-2.165-1.461-0.479-10.795-0.94-10.031-4.975 2.23-11.765 11.903-11.175 13.449-10.886z"/>
 <path d="m420.9 424.86c-0.241-5.773-3.666-14.335-3.666-14.335 0-3.036 4.101-3.567 6.978-3.647v-0.027c29.914 0-16.021 0 55.684-2e-3 1.369-0.077 7.628 0.537 9.537-3.665v36.154c0 4.284-8.168 3.587-9.537 3.667h-29.887v0.01h-23.239c-1.367 0.08-7.627-0.536-9.534 3.667-3e-3 0 3.907-16.05 3.664-21.822z" fill="#58595B"/>
 <path d="m489.43 418.43v21.011c-1.909-4.204-8.168-3.588-9.537-3.667l2.95-5e-3h-8.675c-1.36-0.077-9.443 0.605-9.527-3.604v-13.933l24.789 0.198z"/>
 <path d="m684.13 398.16c1.474-4.062-7.759-6.52-9.25-7.039-69.3-22.469-143.94-22.469-213.24 0-1.493 0.521-10.727 2.977-9.252 7.039 0.023-0.017 6.564 6.751 8.669 12.139 2.068 5.385 3.518 21.893 3.577 21.879 0.422-4.644 6.829-6.175 8.154-6.664 62.054-20.119 128.89-20.119 190.94 0 1.324 0.489 7.731 2.021 8.153 6.664 0.061 0.014 1.508-16.494 3.576-21.879 2.107-5.388 8.649-12.154 8.672-12.139z" fill="#1A1A1A"/>
</svg>
